<svg width="24" height="24" viewBox="0 0 24 24" fill="none" xmlns="http://www.w3.org/2000/svg">
<rect width="24" height="24" fill="#1E1E1E"/>
<g id="View of home page after signing up">
<path d="M-1426 -212C-1426 -213.105 -1425.1 -214 -1424 -214H3546C3547.1 -214 3548 -213.105 3548 -212V3441C3548 3442.1 3547.1 3443 3546 3443H-1424C-1425.1 3443 -1426 3442.1 -1426 3441V-212Z" fill="#404040"/>
<g id="2nd idea 9.18.23">
<rect width="1440" height="1477" transform="translate(-1265 -46)" fill="#141414"/>
<g id="Frame 1">
<g id="iconamoon:search-bold">
<path id="Vector" d="M21 21L16.657 16.657M16.657 16.657C17.3999 15.9141 17.9892 15.0322 18.3912 14.0615C18.7933 13.0909 19.0002 12.0506 19.0002 11C19.0002 9.94939 18.7933 8.90908 18.3913 7.93845C17.9892 6.96782 17.3999 6.08588 16.657 5.34299C15.9141 4.6001 15.0322 4.01081 14.0616 3.60877C13.0909 3.20672 12.0506 2.99979 11 2.99979C9.94942 2.99979 8.90911 3.20672 7.93848 3.60877C6.96785 4.01081 6.08591 4.6001 5.34302 5.34299C3.84269 6.84332 2.99982 8.87821 2.99982 11C2.99982 13.1218 3.84269 15.1567 5.34302 16.657C6.84335 18.1573 8.87824 19.0002 11 19.0002C13.1218 19.0002 15.1567 18.1573 16.657 16.657Z" stroke="#F8F8F8" stroke-width="2.5" stroke-linecap="round" stroke-linejoin="round"/>
</g>
</g>
</g>
<path d="M-1424 -213H3546V-215H-1424V-213ZM3547 -212V3441H3549V-212H3547ZM3546 3442H-1424V3444H3546V3442ZM-1425 3441V-212H-1427V3441H-1425ZM-1424 3442C-1424.55 3442 -1425 3441.55 -1425 3441H-1427C-1427 3442.66 -1425.66 3444 -1424 3444V3442ZM3547 3441C3547 3441.55 3546.55 3442 3546 3442V3444C3547.66 3444 3549 3442.66 3549 3441H3547ZM3546 -213C3546.55 -213 3547 -212.552 3547 -212H3549C3549 -213.657 3547.66 -215 3546 -215V-213ZM-1424 -215C-1425.66 -215 -1427 -213.657 -1427 -212H-1425C-1425 -212.552 -1424.55 -213 -1424 -213V-215Z" fill="white" fill-opacity="0.1"/>
</g>
</svg>
